<mxfile host="app.diagrams.net" modified="2023-11-06T10:50:42.115Z" agent="Mozilla/5.0 (Windows NT 10.0; Win64; x64) AppleWebKit/537.36 (KHTML, like Gecko) Chrome/119.0.0.0 Safari/537.36" etag="AjnnW9RLGUlguZ5fEla0" version="22.0.8" type="device">
  <diagram id="C5RBs43oDa-KdzZeNtuy" name="Page-1">
    <mxGraphModel dx="1434" dy="782" grid="1" gridSize="10" guides="1" tooltips="1" connect="1" arrows="1" fold="1" page="1" pageScale="1" pageWidth="827" pageHeight="1169" math="0" shadow="0">
      <root>
        <mxCell id="WIyWlLk6GJQsqaUBKTNV-0" />
        <mxCell id="WIyWlLk6GJQsqaUBKTNV-1" parent="WIyWlLk6GJQsqaUBKTNV-0" />
        <mxCell id="w3qGu5Htr2a0xY1cidH7-2" style="edgeStyle=orthogonalEdgeStyle;rounded=0;orthogonalLoop=1;jettySize=auto;html=1;" edge="1" parent="WIyWlLk6GJQsqaUBKTNV-1" source="w3qGu5Htr2a0xY1cidH7-0" target="w3qGu5Htr2a0xY1cidH7-1">
          <mxGeometry relative="1" as="geometry" />
        </mxCell>
        <mxCell id="w3qGu5Htr2a0xY1cidH7-0" value="begin" style="ellipse;whiteSpace=wrap;html=1;" vertex="1" parent="WIyWlLk6GJQsqaUBKTNV-1">
          <mxGeometry x="240" y="120" width="120" height="80" as="geometry" />
        </mxCell>
        <mxCell id="w3qGu5Htr2a0xY1cidH7-3" style="edgeStyle=orthogonalEdgeStyle;rounded=0;orthogonalLoop=1;jettySize=auto;html=1;" edge="1" parent="WIyWlLk6GJQsqaUBKTNV-1" source="w3qGu5Htr2a0xY1cidH7-1">
          <mxGeometry relative="1" as="geometry">
            <mxPoint x="300" y="330" as="targetPoint" />
          </mxGeometry>
        </mxCell>
        <mxCell id="w3qGu5Htr2a0xY1cidH7-8" style="edgeStyle=orthogonalEdgeStyle;rounded=0;orthogonalLoop=1;jettySize=auto;html=1;" edge="1" parent="WIyWlLk6GJQsqaUBKTNV-1" source="w3qGu5Htr2a0xY1cidH7-1" target="w3qGu5Htr2a0xY1cidH7-9">
          <mxGeometry relative="1" as="geometry">
            <mxPoint x="480" y="270" as="targetPoint" />
          </mxGeometry>
        </mxCell>
        <mxCell id="w3qGu5Htr2a0xY1cidH7-1" value="a,b,c" style="shape=parallelogram;perimeter=parallelogramPerimeter;whiteSpace=wrap;html=1;fixedSize=1;" vertex="1" parent="WIyWlLk6GJQsqaUBKTNV-1">
          <mxGeometry x="240" y="240" width="120" height="60" as="geometry" />
        </mxCell>
        <mxCell id="w3qGu5Htr2a0xY1cidH7-5" style="edgeStyle=orthogonalEdgeStyle;rounded=0;orthogonalLoop=1;jettySize=auto;html=1;entryX=0.583;entryY=0.025;entryDx=0;entryDy=0;entryPerimeter=0;" edge="1" parent="WIyWlLk6GJQsqaUBKTNV-1" target="w3qGu5Htr2a0xY1cidH7-35">
          <mxGeometry relative="1" as="geometry">
            <mxPoint x="560" y="370" as="targetPoint" />
            <mxPoint x="340" y="369.5" as="sourcePoint" />
          </mxGeometry>
        </mxCell>
        <mxCell id="w3qGu5Htr2a0xY1cidH7-6" value="false" style="text;html=1;align=center;verticalAlign=middle;resizable=0;points=[];autosize=1;strokeColor=none;fillColor=none;" vertex="1" parent="WIyWlLk6GJQsqaUBKTNV-1">
          <mxGeometry x="415" y="328" width="50" height="30" as="geometry" />
        </mxCell>
        <mxCell id="w3qGu5Htr2a0xY1cidH7-7" value="a,b=0" style="rhombus;whiteSpace=wrap;html=1;" vertex="1" parent="WIyWlLk6GJQsqaUBKTNV-1">
          <mxGeometry x="260" y="330" width="80" height="80" as="geometry" />
        </mxCell>
        <mxCell id="w3qGu5Htr2a0xY1cidH7-10" style="edgeStyle=orthogonalEdgeStyle;rounded=0;orthogonalLoop=1;jettySize=auto;html=1;" edge="1" parent="WIyWlLk6GJQsqaUBKTNV-1" source="w3qGu5Htr2a0xY1cidH7-9">
          <mxGeometry relative="1" as="geometry">
            <mxPoint x="670" y="270" as="targetPoint" />
          </mxGeometry>
        </mxCell>
        <mxCell id="w3qGu5Htr2a0xY1cidH7-15" style="edgeStyle=orthogonalEdgeStyle;rounded=0;orthogonalLoop=1;jettySize=auto;html=1;" edge="1" parent="WIyWlLk6GJQsqaUBKTNV-1" source="w3qGu5Htr2a0xY1cidH7-9" target="w3qGu5Htr2a0xY1cidH7-16">
          <mxGeometry relative="1" as="geometry">
            <mxPoint x="480" y="150" as="targetPoint" />
          </mxGeometry>
        </mxCell>
        <mxCell id="w3qGu5Htr2a0xY1cidH7-9" value="a,b&amp;gt;0" style="rhombus;whiteSpace=wrap;html=1;" vertex="1" parent="WIyWlLk6GJQsqaUBKTNV-1">
          <mxGeometry x="440" y="230" width="80" height="80" as="geometry" />
        </mxCell>
        <mxCell id="w3qGu5Htr2a0xY1cidH7-11" value="true&lt;br&gt;" style="text;html=1;align=center;verticalAlign=middle;resizable=0;points=[];autosize=1;strokeColor=none;fillColor=none;" vertex="1" parent="WIyWlLk6GJQsqaUBKTNV-1">
          <mxGeometry x="570" y="230" width="40" height="30" as="geometry" />
        </mxCell>
        <mxCell id="w3qGu5Htr2a0xY1cidH7-13" style="edgeStyle=orthogonalEdgeStyle;rounded=0;orthogonalLoop=1;jettySize=auto;html=1;" edge="1" parent="WIyWlLk6GJQsqaUBKTNV-1" source="w3qGu5Htr2a0xY1cidH7-12">
          <mxGeometry relative="1" as="geometry">
            <mxPoint x="725" y="410" as="targetPoint" />
          </mxGeometry>
        </mxCell>
        <mxCell id="w3qGu5Htr2a0xY1cidH7-21" style="edgeStyle=orthogonalEdgeStyle;rounded=0;orthogonalLoop=1;jettySize=auto;html=1;" edge="1" parent="WIyWlLk6GJQsqaUBKTNV-1" source="w3qGu5Htr2a0xY1cidH7-12" target="w3qGu5Htr2a0xY1cidH7-22">
          <mxGeometry relative="1" as="geometry">
            <mxPoint x="725" y="170" as="targetPoint" />
          </mxGeometry>
        </mxCell>
        <mxCell id="w3qGu5Htr2a0xY1cidH7-12" value="c chia het cho a,b" style="rhombus;whiteSpace=wrap;html=1;" vertex="1" parent="WIyWlLk6GJQsqaUBKTNV-1">
          <mxGeometry x="670" y="230" width="110" height="80" as="geometry" />
        </mxCell>
        <mxCell id="w3qGu5Htr2a0xY1cidH7-14" value="true" style="text;html=1;align=center;verticalAlign=middle;resizable=0;points=[];autosize=1;strokeColor=none;fillColor=none;" vertex="1" parent="WIyWlLk6GJQsqaUBKTNV-1">
          <mxGeometry x="730" y="338" width="40" height="30" as="geometry" />
        </mxCell>
        <mxCell id="w3qGu5Htr2a0xY1cidH7-16" value="c ko chia het cho a,b" style="rhombus;whiteSpace=wrap;html=1;" vertex="1" parent="WIyWlLk6GJQsqaUBKTNV-1">
          <mxGeometry x="420" y="50" width="120" height="100" as="geometry" />
        </mxCell>
        <mxCell id="w3qGu5Htr2a0xY1cidH7-17" value="false" style="text;html=1;align=center;verticalAlign=middle;resizable=0;points=[];autosize=1;strokeColor=none;fillColor=none;" vertex="1" parent="WIyWlLk6GJQsqaUBKTNV-1">
          <mxGeometry x="480" y="188" width="50" height="30" as="geometry" />
        </mxCell>
        <mxCell id="w3qGu5Htr2a0xY1cidH7-19" style="edgeStyle=orthogonalEdgeStyle;rounded=0;orthogonalLoop=1;jettySize=auto;html=1;" edge="1" parent="WIyWlLk6GJQsqaUBKTNV-1" source="w3qGu5Htr2a0xY1cidH7-18" target="w3qGu5Htr2a0xY1cidH7-20">
          <mxGeometry relative="1" as="geometry">
            <mxPoint x="725" y="540" as="targetPoint" />
          </mxGeometry>
        </mxCell>
        <mxCell id="w3qGu5Htr2a0xY1cidH7-18" value="1&amp;gt;2" style="rhombus;whiteSpace=wrap;html=1;" vertex="1" parent="WIyWlLk6GJQsqaUBKTNV-1">
          <mxGeometry x="685" y="400" width="80" height="80" as="geometry" />
        </mxCell>
        <mxCell id="w3qGu5Htr2a0xY1cidH7-26" style="edgeStyle=orthogonalEdgeStyle;rounded=0;orthogonalLoop=1;jettySize=auto;html=1;" edge="1" parent="WIyWlLk6GJQsqaUBKTNV-1" source="w3qGu5Htr2a0xY1cidH7-20">
          <mxGeometry relative="1" as="geometry">
            <mxPoint x="120" y="540" as="targetPoint" />
          </mxGeometry>
        </mxCell>
        <mxCell id="w3qGu5Htr2a0xY1cidH7-20" value="max 1" style="shape=parallelogram;perimeter=parallelogramPerimeter;whiteSpace=wrap;html=1;fixedSize=1;" vertex="1" parent="WIyWlLk6GJQsqaUBKTNV-1">
          <mxGeometry x="665" y="510" width="120" height="60" as="geometry" />
        </mxCell>
        <mxCell id="w3qGu5Htr2a0xY1cidH7-23" style="edgeStyle=orthogonalEdgeStyle;rounded=0;orthogonalLoop=1;jettySize=auto;html=1;" edge="1" parent="WIyWlLk6GJQsqaUBKTNV-1" source="w3qGu5Htr2a0xY1cidH7-22" target="w3qGu5Htr2a0xY1cidH7-24">
          <mxGeometry relative="1" as="geometry">
            <mxPoint x="725" y="80" as="targetPoint" />
          </mxGeometry>
        </mxCell>
        <mxCell id="w3qGu5Htr2a0xY1cidH7-22" value="2&amp;gt;1" style="rhombus;whiteSpace=wrap;html=1;" vertex="1" parent="WIyWlLk6GJQsqaUBKTNV-1">
          <mxGeometry x="685" y="130" width="80" height="80" as="geometry" />
        </mxCell>
        <mxCell id="w3qGu5Htr2a0xY1cidH7-25" style="edgeStyle=orthogonalEdgeStyle;rounded=0;orthogonalLoop=1;jettySize=auto;html=1;" edge="1" parent="WIyWlLk6GJQsqaUBKTNV-1">
          <mxGeometry relative="1" as="geometry">
            <mxPoint x="64" y="555" as="targetPoint" />
            <mxPoint x="669" y="44" as="sourcePoint" />
          </mxGeometry>
        </mxCell>
        <mxCell id="w3qGu5Htr2a0xY1cidH7-24" value="max2" style="shape=parallelogram;perimeter=parallelogramPerimeter;whiteSpace=wrap;html=1;fixedSize=1;" vertex="1" parent="WIyWlLk6GJQsqaUBKTNV-1">
          <mxGeometry x="660" y="10" width="120" height="60" as="geometry" />
        </mxCell>
        <mxCell id="w3qGu5Htr2a0xY1cidH7-31" style="edgeStyle=orthogonalEdgeStyle;rounded=0;orthogonalLoop=1;jettySize=auto;html=1;" edge="1" parent="WIyWlLk6GJQsqaUBKTNV-1" source="w3qGu5Htr2a0xY1cidH7-30" target="w3qGu5Htr2a0xY1cidH7-32">
          <mxGeometry relative="1" as="geometry">
            <mxPoint x="130" y="490" as="targetPoint" />
          </mxGeometry>
        </mxCell>
        <mxCell id="w3qGu5Htr2a0xY1cidH7-30" value="while" style="rounded=0;whiteSpace=wrap;html=1;" vertex="1" parent="WIyWlLk6GJQsqaUBKTNV-1">
          <mxGeometry x="10" y="510" width="120" height="60" as="geometry" />
        </mxCell>
        <mxCell id="w3qGu5Htr2a0xY1cidH7-33" style="edgeStyle=orthogonalEdgeStyle;rounded=0;orthogonalLoop=1;jettySize=auto;html=1;" edge="1" parent="WIyWlLk6GJQsqaUBKTNV-1" source="w3qGu5Htr2a0xY1cidH7-32">
          <mxGeometry relative="1" as="geometry">
            <mxPoint x="440" y="470" as="targetPoint" />
          </mxGeometry>
        </mxCell>
        <mxCell id="w3qGu5Htr2a0xY1cidH7-32" value="max chia het cho a,b" style="rhombus;whiteSpace=wrap;html=1;" vertex="1" parent="WIyWlLk6GJQsqaUBKTNV-1">
          <mxGeometry x="110" y="430" width="140" height="80" as="geometry" />
        </mxCell>
        <mxCell id="w3qGu5Htr2a0xY1cidH7-34" value="true" style="text;html=1;align=center;verticalAlign=middle;resizable=0;points=[];autosize=1;strokeColor=none;fillColor=none;" vertex="1" parent="WIyWlLk6GJQsqaUBKTNV-1">
          <mxGeometry x="300" y="428" width="40" height="30" as="geometry" />
        </mxCell>
        <mxCell id="w3qGu5Htr2a0xY1cidH7-35" value="end" style="ellipse;whiteSpace=wrap;html=1;" vertex="1" parent="WIyWlLk6GJQsqaUBKTNV-1">
          <mxGeometry x="440" y="428" width="120" height="80" as="geometry" />
        </mxCell>
      </root>
    </mxGraphModel>
  </diagram>
</mxfile>
